<svg version="1.1" viewBox="0 0 154 48" xmlns="http://www.w3.org/2000/svg">
 <path d="M44.34,39.82c.09,.23,.13,.48,.13,.75s-.04,.53-.13,.77c-.09,.23-.21,.43-.36,.6-.16,.17-.34,.3-.55,.39-.21,.1-.45,.14-.71,.14s-.5-.05-.71-.14c-.21-.1-.4-.23-.55-.39-.15-.17-.27-.37-.36-.6-.09-.23-.13-.49-.13-.77s.04-.51,.13-.75c.08-.23,.2-.43,.36-.59,.16-.16,.34-.29,.55-.39,.21-.1,.45-.14,.71-.14s.5,.05,.71,.14c.22,.1,.4,.23,.55,.39,.15,.16,.27,.36,.36,.59Zm69.17-.97c-.1-.05-.2-.08-.32-.1-.12-.02-.23-.03-.34-.03h-.79v1.43h.7c.12,0,.25,0,.37-.03,.13-.02,.24-.06,.35-.11,.1-.05,.19-.13,.26-.23,.07-.1,.1-.23,.1-.38,0-.14-.03-.26-.09-.35-.06-.09-.14-.16-.24-.21Zm-86.8,2.42h1.54l-.76-2.1-.78,2.1Zm-4.94-2.42c-.1-.05-.2-.08-.32-.1s-.23-.03-.34-.03h-.79v1.43h.7c.12,0,.25,0,.37-.03,.13-.02,.24-.06,.35-.11,.1-.05,.19-.13,.26-.23,.07-.1,.1-.23,.1-.38,0-.14-.03-.26-.09-.35-.06-.09-.14-.16-.23-.21Zm131.85-5.39v14.28H.34v-14.28H153.62ZM23.89,43.66l-1.6-2.62c.4-.12,.71-.32,.94-.61,.23-.28,.34-.63,.34-1.05,0-.35-.07-.65-.2-.88-.13-.24-.31-.43-.53-.57-.22-.14-.47-.25-.75-.31-.28-.06-.57-.09-.86-.09h-2.34v6.13h1.45v-2.43h.5l1.33,2.43h1.73Zm6.89,0l-2.55-6.13h-1.44l-2.57,6.13h1.61l.45-1.2h2.37l.48,1.2h1.65Zm7.6-6.13h-2.14l-1.34,3.93h-.03l-1.4-3.93h-2.11v6.13h1.39l-.03-4.34h.03l1.55,4.34h1.04l1.59-4.34h.03l-.03,4.34h1.46v-6.13Zm7.68,3.04c0-.49-.08-.93-.25-1.33-.17-.4-.4-.73-.7-1.01-.3-.28-.65-.49-1.06-.64-.41-.15-.85-.23-1.33-.23s-.92,.08-1.33,.23c-.41,.15-.76,.36-1.06,.64-.3,.28-.53,.61-.7,1.01-.17,.4-.25,.84-.25,1.33s.08,.93,.25,1.33c.17,.4,.4,.74,.7,1.03,.3,.29,.65,.51,1.06,.66,.41,.16,.85,.23,1.33,.23s.92-.08,1.33-.23c.41-.16,.76-.38,1.06-.66,.3-.29,.53-.63,.7-1.03,.17-.4,.25-.84,.25-1.33Zm6.57-3.04h-1.44l.03,4h-.03l-2.46-4h-1.69v6.13h1.44l-.03-4.01h.03l2.47,4.01h1.68v-6.13Zm7.45,4.84h-2.37v-4.84h-1.49v6.13h3.86v-1.29Zm4.54,0h-2.37v-4.84h-1.49v6.13h3.86v-1.29Zm5.83-4.84h-1.48v3.7c0,.17-.02,.33-.06,.48-.04,.15-.11,.28-.2,.4-.09,.12-.21,.21-.36,.28-.15,.07-.32,.1-.53,.1s-.39-.03-.53-.1c-.15-.07-.27-.16-.36-.28-.09-.12-.16-.25-.2-.4-.04-.15-.06-.31-.06-.48v-3.7h-1.47v3.82c0,.37,.06,.71,.18,1.01,.12,.3,.29,.56,.52,.78,.23,.22,.5,.39,.82,.51,.32,.12,.69,.18,1.09,.18s.76-.06,1.09-.18c.33-.12,.6-.29,.84-.51,.23-.22,.41-.48,.53-.78,.12-.3,.19-.64,.19-1.01v-3.82Zm5.12,4.84h-2.37v-4.84h-1.49v6.13h3.86v-1.29Zm4.54,0h-2.37v-4.84h-1.49v6.13h3.86v-1.29Zm8.21-4.84h-1.48v3.7c0,.17-.02,.33-.06,.48-.04,.15-.11,.28-.2,.4-.09,.12-.21,.21-.36,.28s-.32,.1-.53,.1-.39-.03-.53-.1c-.15-.07-.27-.16-.36-.28-.09-.12-.16-.25-.2-.4-.04-.15-.06-.31-.06-.48v-3.7h-1.47v3.82c0,.37,.06,.71,.18,1.01,.12,.3,.29,.56,.52,.78,.23,.22,.5,.39,.82,.51,.32,.12,.69,.18,1.09,.18s.76-.06,1.09-.18c.33-.12,.6-.29,.84-.51,.23-.22,.41-.48,.53-.78,.12-.3,.19-.64,.19-1.01v-3.82Zm6.83,0h-1.44l.03,4h-.03l-2.46-4h-1.69v6.13h1.44l-.03-4.01h.03l2.47,4.01h1.68v-6.13Zm2.79,0h-1.49v6.13h1.49v-6.13Zm6.75,0h-1.64l-1.41,4.35h-.03l-1.42-4.35h-1.66l2.32,6.13h1.48l2.36-6.13Zm4.86,4.87h-2.85v-1.27h2.55v-1.19h-2.55v-1.16h2.69v-1.25h-4.12v6.13h4.28v-1.26Zm6.08,1.26l-1.6-2.62c.4-.12,.71-.32,.94-.61,.23-.28,.34-.63,.34-1.05,0-.35-.07-.65-.2-.88-.13-.24-.31-.43-.53-.57-.22-.14-.47-.25-.75-.31-.28-.06-.57-.09-.86-.09h-2.34v6.13h1.45v-2.43h.5l1.33,2.43h1.73Zm2.07-4.45c0-.12,.03-.22,.08-.3,.05-.08,.12-.14,.2-.19,.08-.05,.17-.08,.27-.1,.1-.02,.2-.03,.3-.03,.19,0,.39,.05,.59,.14,.2,.1,.37,.22,.5,.39l.94-1c-.27-.25-.59-.44-.95-.56-.36-.13-.71-.19-1.06-.19-.29,0-.57,.04-.86,.11-.28,.07-.54,.19-.76,.34-.23,.16-.41,.36-.55,.6-.14,.24-.21,.53-.21,.87,0,.28,.04,.51,.13,.71s.21,.36,.36,.49c.15,.14,.31,.25,.5,.33,.19,.09,.38,.16,.58,.23,.2,.06,.38,.12,.54,.18,.16,.05,.29,.12,.4,.18,.11,.07,.19,.14,.25,.22,.06,.08,.09,.18,.09,.29s-.02,.22-.07,.31c-.05,.09-.11,.16-.19,.21-.08,.05-.17,.09-.27,.11-.1,.02-.21,.03-.32,.03-.24,0-.49-.06-.73-.19-.25-.12-.44-.28-.59-.46l-.97,.99c.27,.28,.61,.5,1.02,.65,.41,.15,.83,.23,1.27,.23,.3,0,.59-.04,.87-.12,.28-.08,.53-.2,.75-.37,.22-.17,.39-.38,.52-.64,.13-.26,.19-.56,.19-.91,0-.31-.06-.56-.18-.77-.12-.2-.27-.38-.46-.52-.18-.14-.39-.25-.61-.33-.23-.08-.44-.16-.65-.23-.14-.05-.27-.09-.39-.13-.12-.04-.22-.09-.3-.14-.08-.05-.15-.11-.19-.18-.04-.07-.06-.16-.06-.26Zm5.35-1.68h-1.49v6.13h1.49v-6.13Zm5.61,0h-4.95v1.26h1.73v4.87h1.48v-4.87h1.73v-1.26Zm6.43,0h-1.73l-1.31,2.27-1.31-2.27h-1.79l2.3,3.53v2.6h1.48v-2.6l2.36-3.53ZM14.84,12.45c-.06-.12-.11-.18-.23-.24-.14-.09-.26-.09-.43-.07-.35,.05-.51,.17-.81,.34-.14,.08-.35,.23-.35,.23v6.21s.68,.51,1.1,.87c.38,.32,.94,.95,.94,.86v-7.42c0-.14-.02-.22-.06-.35-.04-.17-.07-.24-.16-.41Zm12.39,1.28c0,7.43-6.02,13.45-13.45,13.45S.33,21.15,.33,13.72,6.35,.27,13.78,.27s13.45,6.02,13.45,13.45Zm-8.47-.43c0-.35-.03-.56-.12-.9-.07-.24-.12-.37-.23-.6-.12-.27-.21-.41-.37-.65-.25-.36-.44-.52-.73-.85-.21-.24-.54-.62-.54-.62-1.49,.99-3.75,2.49-3.75,2.49v-3.92c0-.42,.05-.82,.13-1.08,.08-.27,.14-.33,.32-.65,.13-.23,.23-.34,.46-.49,.19-.13,.32-.18,.55-.25,.23-.07,.37-.09,.6-.1,.28-.02,.42,.02,.71,.02v-.41s-.73-.07-1.2-.06c-.48,0-.75,.02-1.22,.11-.43,.08-.68,.16-1.1,.3-.86,.29-1.47,.65-1.48,.62-.08-.12-.13-.18-.23-.28-.15-.15-.27-.2-.46-.3-.23-.11-.37-.14-.61-.21-.47-.13-1.24-.17-1.24-.17,0,.2,0,.17,0,.36,0,.05,.54,.28,.7,.46,.17,.2,.26,.33,.33,.58,.09,.31,.11,.51,.11,.85v11.03c0,.2-.02,.25-.07,.53-.03,.18-.09,.3-.23,.43-.09,.08-.17,.11-.28,.16-.2,.09-.32,.13-.53,.14-.14,0-.37-.03-.37-.03,.11,.17,.15,.22,.27,.35,.04,.05,.54,.19,.87,.34,.33,.15,.51,.25,.83,.43,.22,.12,.34,.19,.55,.32,.26,.17,.4,.27,.65,.46,.27,.2,.43,.31,.69,.53,.43,.36,1.04,.99,1.04,.99,.03-.06,.05-.08,.09-.12,.16-.21,.29-.36,.44-.5,.36-.32,.67-.48,1.01-.65,.6-.32,.98-.42,1.61-.67,.48-.19,.77-.23,1.22-.46,.3-.15,.48-.22,.73-.44,.18-.15,.27-.25,.4-.44,.15-.21,.2-.36,.28-.6,.15-.44,.19-.71,.19-1.17v-4.83Zm11.68-7.96v.66c2.13,.28,2.04,.15,2.04,2.5v11.38c0,2.35,.1,2.23-2.04,2.5v.66h6.56c3.47,0,6.01-1.52,6.01-5.06,0-2.66-2.01-4.4-4.52-4.48v-.05c1.87-.58,3.41-2.15,3.41-4.28,0-2.88-1.98-3.84-5.61-3.84h-5.84Zm4.33,.81h1.35c2.27,0,3.41,.96,3.41,3.46,0,2.94-1.61,3.77-2.96,3.77h-1.8V6.14Zm0,8.04h1.51c2.22,0,4.02,1.09,4.02,4.15,0,2.5-1.01,3.9-3.14,3.9-1.96,0-2.39-.63-2.39-2.86v-5.19Zm13.77-9.74c-1.04,.41-2.55,.71-3.98,.76v.66h.99c.62,0,.9,.43,.9,1.11v12.9c0,2.28,.12,2.2-1.89,2.5v.66h5.92v-.66c-2.01-.3-1.89-.23-1.89-2.5V4.5l-.05-.05Zm13.93,17.76l-.14-.71c-1.59,.66-1.66-.43-1.66-1.72v-5.62c0-2.76-1.21-4.07-3.98-4.07-1.04,0-1.85,.18-2.93,.63-.29,.1-.55,.3-.69,.78l-.35,1.34c-.02,.18,.05,.28,.19,.33l.8,.21c.14,.02,.23,.02,.31-.1,.57-.91,1.06-2.3,2.51-2.3s2.01,1.47,2.01,3.67l-2.55,1.06c-2.77,1.16-4.09,1.92-4.09,4.33,0,1.85,1.3,3.31,2.86,3.31,.73,0,1.4-.3,1.94-.68l1.84-1.31c0,.76,.19,1.54,.55,2l3.38-1.14Zm-3.93-4.63c0,3.34-1.47,4.2-2.7,4.2-1.09,0-1.82-.96-1.82-2.15,0-2.58,2.44-3.19,4.52-4.02v1.97Zm8.94-.78c0-2.61,.47-5.39,3.51-5.39,2.5,0,2.6,2.23,2.6,3.82v4.65c0,2.28,.12,2.2-1.89,2.5v.66h5.91v-.66c-2.01-.3-1.89-.23-1.89-2.5v-5.31c0-2.63-.57-4.48-3.46-4.48-2.06,0-3.76,.96-4.78,2.22v-2.17l-.04-.05c-1.09,.71-2.68,1.01-3.98,1.06v.66c1.16,0,1.89-.1,1.89,1.06v7.01c0,2.28,.12,2.2-1.89,2.5v.66h5.92v-.66c-2.01-.3-1.89-.23-1.89-2.5v-3.09Zm20.45,9.41c0,.84,0,1.19-.1,1.8-.1,.53-.95,.58-2.46,.71v.66h6.58v-.66c-2.01-.3-1.89-.23-1.89-2.5V10.24c-1.18,.25-3.34-.1-4.78-.15-3.22,0-6.29,2.3-6.29,6.75,0,2.91,1.65,6.5,5.56,6.5,.57,0,.88-.2,1.8-.76l1.59-.94v4.55Zm0-6.68c0,1.26-1.47,2.38-2.72,2.38-2.89,0-3.98-3.44-3.98-6.07,0-1.95,1.02-4.86,3.65-4.86,1.46,0,2.44,.38,3.05,1.47v7.08Zm18.15,2.68l-.14-.71c-1.58,.66-1.66-.43-1.66-1.72V10.14l-.04-.05c-1.09,.71-2.68,1.01-3.98,1.06v.66c1.16,0,1.89-.1,1.89,1.06v3.97c0,3.75-1.04,5.01-3.25,5.01-2.08,0-2.36-1.77-2.36-3.67V10.14l-.05-.05c-1.11,.71-2.69,1.01-3.98,1.06v.66c1.16,0,1.89-.1,1.89,1.06v5.54c0,2.84,.73,4.93,3.45,4.93,.69,0,1.21-.05,2.2-.66l2.08-1.29c0,.73,.19,1.52,.54,1.95l3.38-1.14Zm11.19-6.15v-.7c0-3.19-1.73-5.26-4.4-5.26-4.02,0-5.51,3.62-5.51,6.58,0,1.9,.88,3.9,1.59,4.76,1.91,2.25,3.9,1.92,4.49,1.92h.73l3.1-1.57-.38-.78c-.56,.3-1.35,.91-2.65,.91-3.39,0-4.64-2.96-4.64-5.84h7.66Zm-7.66-.88c0-3.19,1.54-4.2,3.12-4.2,1.32,0,2.49,1.11,2.49,2.73,0,1.11-.66,1.47-1.19,1.47h-4.42Zm15.92-2.23c.12,.08,.22,.13,.36,.03l.68-.48c.14-.1,.26-.21,.19-.35l-.69-1.29c-.38-.73-.66-.76-.88-.76-.4,0-.73,.33-1.3,.96l-1.23,1.36v-2.28l-.05-.05c-1.09,.71-2.67,1.01-3.95,1.06v.66c1.14,0,1.87-.1,1.87,1.06v7.01c0,2.28,.12,2.2-1.89,2.5v.66h6.34v-.66c-1.28-.13-2.13-.17-2.23-.71-.09-.61-.09-.96-.09-1.8v-3.95c0-1.82,.17-3.54,1.14-3.54,.35,0,.64-.03,.87,.1l.85,.45Zm6.01,3.85c0-2.61,.48-5.39,3.5-5.39,2.51,0,2.6,2.23,2.6,3.82v4.65c0,2.28,.12,2.2-1.89,2.5v.66h5.92v-.66c-2.01-.3-1.89-.23-1.89-2.5v-5.31c0-2.63-.57-4.48-3.46-4.48-2.06,0-3.76,.96-4.78,2.22v-2.17l-.04-.05c-1.09,.71-2.68,1.01-3.98,1.06v.66c1.16,0,1.89-.1,1.89,1.06v7.01c0,2.28,.12,2.2-1.89,2.5v.66h5.91v-.66c-2.01-.3-1.89-.23-1.89-2.5v-3.09Zm22.13,5.42l-.15-.71c-1.58,.66-1.65-.43-1.65-1.72v-5.62c0-2.76-1.21-4.07-3.98-4.07-1.04,0-1.85,.18-2.93,.63-.28,.1-.54,.3-.69,.78l-.35,1.34c-.02,.18,.05,.28,.19,.33l.8,.21c.14,.02,.23,.02,.31-.1,.57-.91,1.06-2.3,2.51-2.3s2.01,1.47,2.01,3.67l-2.55,1.06c-2.77,1.16-4.1,1.92-4.1,4.33,0,1.85,1.3,3.31,2.86,3.31,.73,0,1.4-.3,1.94-.68l1.84-1.31c0,.76,.19,1.54,.55,2l3.38-1.14Zm-3.93-4.63c0,3.34-1.47,4.2-2.7,4.2-1.09,0-1.82-.96-1.82-2.15,0-2.58,2.44-3.19,4.52-4.02v1.97Z"/>
</svg>
