<svg width="80mm" height="50mm" version="1.1" viewBox="0 0 80 50" xmlns="http://www.w3.org/2000/svg">
 <g transform="translate(-20.95 -32.4)">
  <g transform="translate(-75.671 -111.92)">
   <g transform="translate(11.412 9.992)">
    <g fill="#c00" aria-label="IPTG">
     <path d="m93.547 161.87h-6.0388v-25.878h6.0388z"/>
     <path d="m104.35 153.22v8.6497h-6.0033v-25.878h9.1293q2.7352 0 4.689 0.65717 1.9715 0.6394 3.2326 1.7761 1.2788 1.1367 1.8827 2.682t0.60388 3.3391q0 1.936-0.62164 3.5522-0.62165 1.6163-1.9005 2.7708t-3.2503 1.8116q-1.9537 0.6394-4.6357 0.6394zm0-4.5291h3.126q2.3445 0 3.3746-1.119 1.0302-1.119 1.0302-3.126 0-0.88807-0.26642-1.6163t-0.81702-1.2433q-0.53284-0.53284-1.3676-0.81702-0.81702-0.28418-1.9537-0.28418h-3.126z"/>
     <path d="m139.8 135.99v4.76h-7.2821v21.118h-6.0033v-21.118h-7.2821v-4.76z"/>
     <path d="m153.4 157.53q1.2433 0 2.2024-0.21314 0.95911-0.21313 1.8116-0.56836v-3.9252h-2.5576q-0.56836 0-0.88806-0.30194-0.31971-0.30195-0.31971-0.76374v-3.3036h9.2003v10.923q-0.99463 0.72821-2.0781 1.261-1.0657 0.51507-2.2912 0.85254-1.2078 0.33746-2.5931 0.49731-1.3676 0.15985-2.9484 0.15985-2.8418 0-5.2573-0.99463-2.4155-1.0124-4.1916-2.7708-1.7584-1.7761-2.7708-4.1917-0.99463-2.4333-0.99463-5.2751 0-2.8951 0.95911-5.3106 0.95911-2.4333 2.7352-4.1917 1.7939-1.7584 4.316-2.7352 2.5399-0.97687 5.6658-0.97687 1.6163 0 3.0372 0.26642t2.6109 0.72821q1.2078 0.46179 2.2024 1.1012 0.99463 0.6394 1.7761 1.3854l-1.7406 2.6464q-0.24866 0.37299-0.60388 0.58612-0.33747 0.21314-0.74597 0.21314-0.53284 0-1.1012-0.35523-0.71045-0.42627-1.3499-0.72821-0.62164-0.3197-1.2788-0.51507-0.65716-0.19538-1.3854-0.28418-0.72822-0.0888-1.634-0.0888-1.6873 0-3.0372 0.60388-1.3499 0.58612-2.309 1.6696-0.94134 1.0834-1.4564 2.6109-0.51507 1.5097-0.51507 3.3746 0 2.0603 0.56836 3.6588t1.563 2.6997q1.0124 1.1012 2.38 1.6873 1.3854 0.56836 3.0194 0.56836z"/>
    </g>
    <g fill="#fff" aria-label="The Interdisciplinary PeaceTech Group">
     <path d="m91.988 165.42v0.90505h-1.7814v5.0167h-1.1016v-5.0167h-1.7896v-0.90505z"/>
     <path d="m92.631 171.34v-6.0856h1.0115v2.3384q0.24572-0.23343 0.54058-0.37676 0.29486-0.14333 0.6921-0.14333 0.344 0 0.61019 0.11876 0.26619 0.11467 0.44229 0.32762 0.18019 0.20886 0.27029 0.50372 0.09419 0.29076 0.09419 0.64295v2.6742h-1.0115v-2.6742q0-0.38495-0.18019-0.59381-0.1761-0.21295-0.53238-0.21295-0.2621 0-0.49143 0.11876t-0.4341 0.32352v3.0387z"/>
     <path d="m99.023 167.07q0.39724 0 0.72896 0.12695 0.33581 0.12695 0.57743 0.37267 0.24162 0.24162 0.37677 0.59791 0.13514 0.35219 0.13514 0.80676 0 0.11467-0.0123 0.19248-8e-3 0.0737-0.0369 0.11876-0.0246 0.041-0.0696 0.0614-0.045 0.0164-0.11467 0.0164h-2.5964q0.04505 0.64705 0.3481 0.9501 0.30305 0.30305 0.80267 0.30305 0.24572 0 0.42181-0.0573 0.18019-0.0573 0.31124-0.12695 0.13514-0.0696 0.23343-0.12696 0.10238-0.0573 0.19657-0.0573 0.0614 0 0.10648 0.0246 0.045 0.0246 0.0778 0.0696l0.29485 0.36857q-0.1679 0.19658-0.37676 0.33172-0.20886 0.13105-0.43819 0.21295-0.22524 0.0778-0.46276 0.11057-0.23343 0.0328-0.45457 0.0328-0.43819 0-0.81496-0.14334-0.37676-0.14743-0.65524-0.43-0.27848-0.28667-0.43819-0.70438-0.15972-0.42182-0.15972-0.97468 0-0.43 0.13924-0.80676 0.13924-0.38086 0.39724-0.65934 0.2621-0.28257 0.63476-0.44638 0.37676-0.16381 0.84772-0.16381zm0.02048 0.72486q-0.44229 0-0.6921 0.24981t-0.31943 0.70848h1.9002q0-0.19657-0.05324-0.36857-0.05324-0.1761-0.16381-0.30715-0.11057-0.13105-0.27848-0.20476-0.16791-0.0778-0.39314-0.0778z"/>
     <path d="m104.54 171.34h-1.1057v-5.9218h1.1057z"/>
     <path d="m105.82 171.34v-4.2017h0.61839q0.19657 0 0.258 0.18429l0.0696 0.33171q0.12695-0.13104 0.26619-0.23752 0.14334-0.10648 0.29895-0.18429 0.15972-0.0778 0.33991-0.11876 0.18019-0.041 0.39315-0.041 0.344 0 0.61019 0.11876 0.26619 0.11467 0.44229 0.32762 0.18019 0.20886 0.27029 0.50372 0.0942 0.29076 0.0942 0.64295v2.6742h-1.0115v-2.6742q0-0.38495-0.18019-0.59381-0.1761-0.21295-0.53239-0.21295-0.26209 0-0.49143 0.11876-0.22933 0.11876-0.4341 0.32352v3.0387z"/>
     <path d="m111.85 171.41q-0.54467 0-0.83953-0.30714-0.29486-0.31124-0.29486-0.85591v-2.3466h-0.4259q-0.0819 0-0.14334-0.0532-0.0573-0.0532-0.0573-0.15972v-0.40134l0.67572-0.11057 0.21295-1.1467q0.0164-0.0819 0.0737-0.12695 0.0614-0.0451 0.15152-0.0451h0.52419v1.3228h1.1057v0.72076h-1.1057v2.277q0 0.19657 0.0983 0.30714 0.0983 0.11058 0.2621 0.11058 0.0942 0 0.15562-0.0205 0.0655-0.0246 0.11057-0.0491 0.0491-0.0246 0.086-0.0451 0.0369-0.0246 0.0737-0.0246 0.0451 0 0.0737 0.0246 0.0287 0.0205 0.0614 0.0655l0.30305 0.49143q-0.22115 0.18429-0.50782 0.27848-0.28666 0.0942-0.59381 0.0942z"/>
     <path d="m115.38 167.07q0.39724 0 0.72896 0.12695 0.33581 0.12695 0.57743 0.37267 0.24162 0.24162 0.37676 0.59791 0.13515 0.35219 0.13515 0.80676 0 0.11467-0.0123 0.19248-8e-3 0.0737-0.0369 0.11876-0.0246 0.041-0.0696 0.0614-0.045 0.0164-0.11467 0.0164h-2.5964q0.0451 0.64705 0.3481 0.9501 0.30305 0.30305 0.80267 0.30305 0.24572 0 0.42181-0.0573 0.18019-0.0573 0.31124-0.12695 0.13515-0.0696 0.23343-0.12696 0.10238-0.0573 0.19658-0.0573 0.0614 0 0.10647 0.0246 0.0451 0.0246 0.0778 0.0696l0.29486 0.36857q-0.1679 0.19658-0.37676 0.33172-0.20886 0.13105-0.4382 0.21295-0.22524 0.0778-0.46276 0.11057-0.23343 0.0328-0.45457 0.0328-0.4382 0-0.81496-0.14334-0.37676-0.14743-0.65524-0.43-0.27848-0.28667-0.4382-0.70438-0.15971-0.42182-0.15971-0.97468 0-0.43 0.13924-0.80676 0.13924-0.38086 0.39724-0.65934 0.2621-0.28257 0.63476-0.44638 0.37677-0.16381 0.84772-0.16381zm0.0205 0.72486q-0.44229 0-0.6921 0.24981t-0.31943 0.70848h1.9002q0-0.19657-0.0532-0.36857-0.0532-0.1761-0.16381-0.30715-0.11057-0.13105-0.27848-0.20476-0.1679-0.0778-0.39314-0.0778z"/>
     <path d="m118.02 171.34v-4.2017h0.59381q0.15562 0 0.21705 0.0573 0.0614 0.0573 0.0819 0.19658l0.0614 0.50781q0.22524-0.38905 0.52829-0.61429t0.67981-0.22524q0.31124 0 0.51601 0.14333l-0.13105 0.75763q-0.0123 0.0737-0.0532 0.10647-0.041 0.0287-0.11057 0.0287-0.0614 0-0.16791-0.0287-0.10647-0.0287-0.28257-0.0287-0.31534 0-0.54057 0.17609-0.22524 0.17201-0.38086 0.50782v2.6169z"/>
     <path d="m124.32 171.34q-0.19658 0-0.258-0.18429l-0.0819-0.40543q-0.13105 0.14743-0.27438 0.26619-0.14334 0.11876-0.31124 0.20477-0.16381 0.086-0.35629 0.13104-0.18838 0.0491-0.40953 0.0491-0.344 0-0.63067-0.14334-0.28666-0.14333-0.49552-0.41362-0.20476-0.27438-0.31943-0.67572-0.11057-0.40133-0.11057-0.91734 0-0.46685 0.12695-0.86819t0.36448-0.69619q0.23752-0.29486 0.56924-0.45867 0.33171-0.16791 0.74534-0.16791 0.35219 0 0.602 0.11467 0.24981 0.11057 0.44638 0.29895v-2.2196h1.0115v6.0856zm-1.3473-0.74124q0.31533 0 0.53648-0.13105 0.22114-0.13105 0.41771-0.37267v-1.8838q-0.172-0.20886-0.37676-0.29486-0.20067-0.086-0.4341-0.086-0.22933 0-0.41772 0.086-0.18428 0.086-0.31533 0.2621-0.12695 0.172-0.19657 0.44228-0.0696 0.2662-0.0696 0.63067 0 0.36858 0.0573 0.62658 0.0614 0.25391 0.172 0.41772 0.11057 0.15971 0.27029 0.23343 0.15971 0.0696 0.35629 0.0696z"/>
     <path d="m127.11 167.14v4.2017h-1.0115v-4.2017zm0.15152-1.2245q0 0.13105-0.0532 0.24571-0.0532 0.11467-0.14333 0.20067-0.086 0.086-0.20476 0.13924-0.11877 0.0491-0.25391 0.0491-0.13105 0-0.24981-0.0491-0.11467-0.0532-0.20067-0.13924-0.086-0.086-0.13924-0.20067-0.0491-0.11466-0.0491-0.24571 0-0.13515 0.0491-0.25391 0.0532-0.11876 0.13924-0.20476 0.086-0.086 0.20067-0.13514 0.11876-0.0532 0.24981-0.0532 0.13514 0 0.25391 0.0532 0.11876 0.0491 0.20476 0.13514 0.0901 0.086 0.14333 0.20476 0.0532 0.11876 0.0532 0.25391z"/>
     <path d="m130.75 167.96q-0.041 0.0655-0.086 0.0942-0.0451 0.0246-0.11467 0.0246-0.0737 0-0.15971-0.041-0.0819-0.041-0.19248-0.0901-0.11057-0.0532-0.25391-0.0942-0.13924-0.041-0.33171-0.041-0.29896 0-0.47096 0.12696-0.172 0.12695-0.172 0.33171 0 0.13515 0.086 0.22934 0.0901 0.0901 0.23343 0.15971 0.14743 0.0696 0.33172 0.12696 0.18428 0.0532 0.37676 0.11876 0.19248 0.0655 0.37676 0.15152 0.18429 0.0819 0.32763 0.21296 0.14742 0.12695 0.23343 0.30714 0.0901 0.18019 0.0901 0.4341 0 0.30305-0.11057 0.56105-0.11057 0.2539-0.32353 0.44229-0.21295 0.18428-0.52829 0.29076-0.31124 0.10238-0.71667 0.10238-0.21704 0-0.4259-0.0409-0.20477-0.0369-0.39724-0.10648-0.18839-0.0696-0.3522-0.16381-0.15971-0.0942-0.28257-0.20476l0.23343-0.38496q0.0451-0.0696 0.10648-0.10647 0.0614-0.0369 0.15562-0.0369 0.0942 0 0.17609 0.0532 0.086 0.0532 0.19658 0.11467 0.11057 0.0614 0.258 0.11466 0.15152 0.0532 0.38086 0.0532 0.18019 0 0.30714-0.041 0.13105-0.0451 0.21296-0.11467 0.086-0.0696 0.12285-0.15971 0.041-0.0942 0.041-0.19248 0-0.14743-0.0901-0.24162-0.086-0.0942-0.23343-0.16381-0.14333-0.0696-0.33172-0.12286-0.18428-0.0573-0.38086-0.12286-0.19247-0.0655-0.38085-0.15152-0.18429-0.0901-0.33172-0.22524-0.14333-0.13514-0.23343-0.33172-0.086-0.19657-0.086-0.47505 0-0.258 0.10238-0.49143t0.29895-0.40543q0.20067-0.1761 0.49553-0.27848 0.29896-0.10647 0.68801-0.10647 0.43409 0 0.79038 0.14333t0.59381 0.37676z"/>
     <path d="m134.79 168.03q-0.0451 0.0573-0.0901 0.0901-0.0409 0.0328-0.12286 0.0328-0.0778 0-0.15152-0.045-0.0737-0.0491-0.1761-0.10647-0.10238-0.0614-0.24571-0.10648-0.13924-0.0491-0.3481-0.0491-0.26619 0-0.46686 0.0983-0.20067 0.0942-0.33581 0.27438-0.13105 0.1802-0.19658 0.4382-0.0655 0.2539-0.0655 0.57743 0 0.33581 0.0696 0.59791 0.0737 0.26209 0.20886 0.44228 0.13514 0.1761 0.32762 0.27029 0.19248 0.0901 0.4341 0.0901t0.38905-0.0573q0.15152-0.0614 0.2539-0.13104 0.10238-0.0737 0.1761-0.13105 0.0778-0.0614 0.172-0.0614 0.12286 0 0.18429 0.0942l0.29076 0.36857q-0.16791 0.19658-0.36448 0.33172-0.19657 0.13105-0.40952 0.21295-0.20886 0.0778-0.4341 0.11057-0.22524 0.0328-0.44639 0.0328-0.38904 0-0.73305-0.14334-0.344-0.14743-0.602-0.4259-0.25391-0.27848-0.40543-0.67982-0.14743-0.40543-0.14743-0.92143 0-0.46277 0.13105-0.85591 0.13514-0.39724 0.39314-0.68391 0.258-0.29076 0.63886-0.45457t0.87639-0.16381q0.47095 0 0.82315 0.15152 0.35628 0.15153 0.63886 0.4341z"/>
     <path d="m136.82 167.14v4.2017h-1.0115v-4.2017zm0.15152-1.2245q0 0.13105-0.0532 0.24571-0.0532 0.11467-0.14333 0.20067-0.086 0.086-0.20476 0.13924-0.11877 0.0491-0.25391 0.0491-0.13105 0-0.24981-0.0491-0.11467-0.0532-0.20067-0.13924-0.086-0.086-0.13924-0.20067-0.0491-0.11466-0.0491-0.24571 0-0.13515 0.0491-0.25391 0.0532-0.11876 0.13924-0.20476 0.086-0.086 0.20067-0.13514 0.11876-0.0532 0.24981-0.0532 0.13514 0 0.25391 0.0532 0.11876 0.0491 0.20476 0.13514 0.0901 0.086 0.14333 0.20476 0.0532 0.11876 0.0532 0.25391z"/>
     <path d="m137.96 172.71v-5.5736h0.61838q0.0983 0 0.16791 0.0451 0.0696 0.0451 0.0901 0.13924l0.0819 0.38905q0.2539-0.29077 0.58152-0.47096 0.33172-0.18019 0.77401-0.18019 0.344 0 0.62657 0.14333 0.28667 0.14334 0.49143 0.41772 0.20886 0.27029 0.31943 0.67162 0.11467 0.39724 0.11467 0.91325 0 0.47095-0.12695 0.87229-0.12695 0.40133-0.36448 0.69619-0.23343 0.29486-0.56924 0.46277-0.33172 0.16381-0.74534 0.16381-0.35629 0-0.6061-0.10648-0.24571-0.11057-0.44228-0.30305v1.72zm1.9657-4.8529q-0.31533 0-0.54057 0.13514-0.22115 0.13105-0.41362 0.37267v1.8838q0.172 0.21295 0.37266 0.29895 0.20477 0.0819 0.4382 0.0819 0.22933 0 0.41362-0.086 0.18838-0.086 0.31533-0.2621 0.13105-0.1761 0.20067-0.44229 0.0696-0.27028 0.0696-0.63476 0-0.36858-0.0614-0.62248-0.0573-0.258-0.1679-0.41772-0.11058-0.15971-0.27029-0.23343-0.15562-0.0737-0.35629-0.0737z"/>
     <path d="m143.67 165.26v6.0856h-1.0115v-6.0856z"/>
     <path d="m145.89 167.14v4.2017h-1.0115v-4.2017zm0.15153-1.2245q0 0.13105-0.0532 0.24571-0.0532 0.11467-0.14334 0.20067-0.086 0.086-0.20476 0.13924-0.11876 0.0491-0.25391 0.0491-0.13104 0-0.24981-0.0491-0.11466-0.0532-0.20066-0.13924-0.086-0.086-0.13924-0.20067-0.0491-0.11466-0.0491-0.24571 0-0.13515 0.0491-0.25391 0.0532-0.11876 0.13924-0.20476 0.086-0.086 0.20066-0.13514 0.11877-0.0532 0.24981-0.0532 0.13515 0 0.25391 0.0532 0.11876 0.0491 0.20476 0.13514 0.0901 0.086 0.14334 0.20476 0.0532 0.11876 0.0532 0.25391z"/>
     <path d="m147.03 171.34v-4.2017h0.61838q0.19658 0 0.258 0.18429l0.0696 0.33171q0.12696-0.13104 0.2662-0.23752 0.14333-0.10648 0.29895-0.18429 0.15972-0.0778 0.33991-0.11876 0.18019-0.041 0.39314-0.041 0.344 0 0.6102 0.11876 0.26619 0.11467 0.44228 0.32762 0.18019 0.20886 0.27029 0.50372 0.0942 0.29076 0.0942 0.64295v2.6742h-1.0115v-2.6742q0-0.38495-0.18019-0.59381-0.1761-0.21295-0.53238-0.21295-0.2621 0-0.49143 0.11876-0.22934 0.11876-0.4341 0.32352v3.0387z"/>
     <path d="m154.98 171.34h-0.45457q-0.14334 0-0.22524-0.041-0.0819-0.045-0.12286-0.1761l-0.0901-0.29896q-0.15972 0.14334-0.31534 0.25391-0.15152 0.10648-0.31533 0.18019-0.16381 0.0737-0.3481 0.11057-0.18429 0.0369-0.40953 0.0369-0.26619 0-0.49143-0.0696-0.22524-0.0737-0.38905-0.21705-0.15971-0.14333-0.24981-0.35628-0.0901-0.21296-0.0901-0.49553 0-0.23753 0.12285-0.46686 0.12696-0.23343 0.41772-0.41772 0.29076-0.18838 0.774-0.31124 0.48324-0.12285 1.1999-0.13924v-0.24571q0-0.42181-0.1802-0.62248-0.17609-0.20476-0.516-0.20476-0.24571 0-0.40953 0.0573-0.16381 0.0573-0.28666 0.13105-0.11877 0.0696-0.22115 0.12695-0.10238 0.0573-0.22524 0.0573-0.10238 0-0.17609-0.0532-0.0737-0.0532-0.11877-0.13105l-0.18428-0.32353q0.72486-0.66343 1.7487-0.66343 0.36858 0 0.65525 0.12286 0.29076 0.11876 0.49143 0.33581 0.20066 0.21295 0.30305 0.51191 0.10647 0.29895 0.10647 0.65524zm-1.9657-0.63067q0.15562 0 0.28667-0.0287 0.13104-0.0287 0.24571-0.086 0.11876-0.0573 0.22524-0.13924 0.11057-0.086 0.22115-0.20067v-0.70848q-0.44229 0.0205-0.74125 0.0778-0.29486 0.0532-0.47505 0.13924-0.18019 0.086-0.258 0.20067-0.0737 0.11467-0.0737 0.24981 0 0.26619 0.15562 0.38086 0.15971 0.11467 0.41362 0.11467z"/>
     <path d="m155.98 171.34v-4.2017h0.59381q0.15562 0 0.21705 0.0573 0.0614 0.0573 0.0819 0.19658l0.0614 0.50781q0.22524-0.38905 0.52829-0.61429t0.67981-0.22524q0.31124 0 0.51601 0.14333l-0.13105 0.75763q-0.0123 0.0737-0.0532 0.10647-0.041 0.0287-0.11057 0.0287-0.0614 0-0.16791-0.0287-0.10647-0.0287-0.28257-0.0287-0.31534 0-0.54058 0.17609-0.22523 0.17201-0.38085 0.50782v2.6169z"/>
     <path d="m160.81 172.5q-0.045 0.10648-0.11876 0.15972-0.0696 0.0573-0.21705 0.0573h-0.75353l0.78629-1.6832-1.6995-3.8905h0.88458q0.12286 0 0.18838 0.0573 0.0655 0.0573 0.0983 0.13105l0.89686 2.1787q0.0451 0.10648 0.0778 0.22115 0.0328 0.11466 0.0573 0.22933 0.0328-0.11876 0.0696-0.22933 0.041-0.11058 0.086-0.22524l0.84363-2.1746q0.0328-0.0819 0.10647-0.13514 0.0778-0.0532 0.172-0.0532h0.81086z"/>
     <path d="m95.061 179.49v2.0845h-1.1016v-5.9218h1.9289q0.59381 0 1.0279 0.13924 0.4341 0.13924 0.71667 0.38905t0.41772 0.59791q0.13514 0.3481 0.13514 0.76172 0 0.43-0.14333 0.79038-0.14333 0.35629-0.43 0.61429-0.28667 0.258-0.71667 0.40134-0.43 0.14333-1.0074 0.14333zm0-0.86h0.82724q0.30305 0 0.52829-0.0737 0.22524-0.0778 0.37267-0.21705 0.14743-0.14333 0.22114-0.344 0.07372-0.20476 0.07372-0.45457 0-0.23753-0.07372-0.43001-0.07371-0.19247-0.22114-0.32762-0.14743-0.13514-0.37267-0.20476-0.22524-0.0737-0.52829-0.0737h-0.82724z"/>
     <path d="m100.6 177.31q0.39724 0 0.72895 0.12695 0.33581 0.12695 0.57743 0.37267 0.24162 0.24162 0.37677 0.59791 0.13514 0.35219 0.13514 0.80676 0 0.11467-0.0123 0.19248-8e-3 0.0737-0.0369 0.11876-0.0246 0.041-0.0696 0.0614-0.045 0.0164-0.11467 0.0164h-2.5964q0.04505 0.64705 0.3481 0.9501 0.30305 0.30305 0.80268 0.30305 0.24571 0 0.42181-0.0573 0.18019-0.0573 0.31124-0.12695 0.13514-0.0696 0.23343-0.12696 0.10238-0.0573 0.19657-0.0573 0.0614 0 0.10648 0.0246 0.045 0.0246 0.0778 0.0696l0.29485 0.36857q-0.1679 0.19658-0.37676 0.33172-0.20886 0.13105-0.43819 0.21295-0.22524 0.0778-0.46277 0.11057-0.23343 0.0328-0.45457 0.0328-0.43819 0-0.81496-0.14334-0.37676-0.14743-0.65524-0.43-0.27848-0.28667-0.43819-0.70438-0.15972-0.42182-0.15972-0.97468 0-0.43 0.13924-0.80676 0.13924-0.38086 0.39724-0.65934 0.2621-0.28257 0.63476-0.44638 0.37676-0.16381 0.84772-0.16381zm0.0205 0.72486q-0.44229 0-0.6921 0.24981-0.24981 0.24981-0.31943 0.70848h1.9002q0-0.19657-0.0532-0.36857-0.0532-0.1761-0.16381-0.30715-0.11058-0.13105-0.27848-0.20476-0.16791-0.0778-0.39315-0.0778z"/>
     <path d="m106.53 181.58h-0.45457q-0.14334 0-0.22524-0.0409-0.0819-0.0451-0.12286-0.1761l-0.0901-0.29895q-0.15971 0.14333-0.31533 0.2539-0.15153 0.10648-0.31534 0.18019-0.16381 0.0737-0.34809 0.11057-0.18429 0.0369-0.40953 0.0369-0.26619 0-0.49143-0.0696-0.22524-0.0737-0.38905-0.21705-0.15972-0.14333-0.24981-0.35628-0.0901-0.21296-0.0901-0.49553 0-0.23753 0.12286-0.46686 0.12695-0.23343 0.41772-0.41772 0.29076-0.18838 0.774-0.31124 0.48324-0.12285 1.1999-0.13923v-0.24572q0-0.42181-0.18019-0.62248-0.1761-0.20476-0.516-0.20476-0.24572 0-0.40953 0.0573t-0.28667 0.13105q-0.11876 0.0696-0.22114 0.12695-0.10238 0.0573-0.22524 0.0573-0.10238 0-0.1761-0.0532-0.0737-0.0532-0.11876-0.13105l-0.18429-0.32353q0.72487-0.66343 1.7487-0.66343 0.36857 0 0.65524 0.12286 0.29077 0.11876 0.49143 0.33581 0.20067 0.21295 0.30305 0.51191 0.10648 0.29895 0.10648 0.65524zm-1.9657-0.63067q0.15562 0 0.28667-0.0287t0.24572-0.086q0.11876-0.0573 0.22524-0.13924 0.11057-0.086 0.22114-0.20067v-0.70848q-0.44229 0.0205-0.74124 0.0778-0.29486 0.0532-0.47505 0.13924-0.18019 0.086-0.258 0.20067-0.0737 0.11467-0.0737 0.24981 0 0.26619 0.15562 0.38086 0.15972 0.11467 0.41362 0.11467z"/>
     <path d="m110.48 178.27q-0.045 0.0573-0.0901 0.0901-0.0409 0.0328-0.12286 0.0328-0.0778 0-0.15152-0.0451-0.0737-0.0491-0.1761-0.10647-0.10238-0.0614-0.24572-0.10648-0.13923-0.0491-0.34809-0.0491-0.26619 0-0.46686 0.0983-0.20067 0.0942-0.33581 0.27438-0.13105 0.1802-0.19658 0.4382-0.0655 0.2539-0.0655 0.57743 0 0.33581 0.0696 0.59791 0.0737 0.26209 0.20886 0.44229 0.13514 0.17609 0.32762 0.27028 0.19248 0.0901 0.4341 0.0901t0.38905-0.0573q0.15152-0.0614 0.2539-0.13104 0.10238-0.0737 0.1761-0.13105 0.0778-0.0614 0.172-0.0614 0.12286 0 0.18429 0.0942l0.29076 0.36857q-0.16791 0.19658-0.36448 0.33172-0.19657 0.13105-0.40953 0.21295-0.20885 0.0778-0.43409 0.11057-0.22524 0.0328-0.44639 0.0328-0.38905 0-0.73305-0.14334-0.344-0.14743-0.602-0.4259-0.25391-0.27848-0.40543-0.67982-0.14743-0.40543-0.14743-0.92143 0-0.46277 0.13105-0.85591 0.13514-0.39724 0.39314-0.68391 0.258-0.29076 0.63886-0.45457t0.87639-0.16381q0.47095 0 0.82315 0.15152 0.35628 0.15153 0.63886 0.4341z"/>
     <path d="m113.17 177.31q0.39724 0 0.72896 0.12695 0.33581 0.12695 0.57743 0.37267 0.24162 0.24162 0.37677 0.59791 0.13514 0.35219 0.13514 0.80676 0 0.11467-0.0123 0.19248-8e-3 0.0737-0.0369 0.11876-0.0246 0.041-0.0696 0.0614-0.0451 0.0164-0.11467 0.0164h-2.5964q0.045 0.64705 0.3481 0.9501 0.30305 0.30305 0.80267 0.30305 0.24572 0 0.42181-0.0573 0.1802-0.0573 0.31124-0.12695 0.13515-0.0696 0.23343-0.12696 0.10239-0.0573 0.19658-0.0573 0.0614 0 0.10647 0.0246 0.0451 0.0246 0.0778 0.0696l0.29486 0.36857q-0.1679 0.19658-0.37676 0.33172-0.20886 0.13105-0.43819 0.21295-0.22524 0.0778-0.46277 0.11057-0.23343 0.0328-0.45457 0.0328-0.4382 0-0.81496-0.14334-0.37676-0.14743-0.65524-0.43-0.27848-0.28667-0.43819-0.70438-0.15972-0.42182-0.15972-0.97468 0-0.43 0.13924-0.80676 0.13924-0.38086 0.39724-0.65934 0.2621-0.28257 0.63477-0.44638 0.37676-0.16381 0.84771-0.16381zm0.0205 0.72486q-0.44229 0-0.6921 0.24981t-0.31943 0.70848h1.9002q0-0.19657-0.0532-0.36857-0.0532-0.1761-0.16381-0.30715-0.11057-0.13105-0.27847-0.20476-0.16791-0.0778-0.39315-0.0778z"/>
     <path d="m120.04 175.66v0.90505h-1.7814v5.0167h-1.1016v-5.0167h-1.7896v-0.90505z"/>
     <path d="m121.59 177.31q0.39724 0 0.72895 0.12695 0.33581 0.12695 0.57743 0.37267 0.24162 0.24162 0.37677 0.59791 0.13514 0.35219 0.13514 0.80676 0 0.11467-0.0123 0.19248-8e-3 0.0737-0.0369 0.11876-0.0246 0.041-0.0696 0.0614-0.0451 0.0164-0.11467 0.0164h-2.5964q0.045 0.64705 0.34809 0.9501 0.30305 0.30305 0.80267 0.30305 0.24572 0 0.42182-0.0573 0.18019-0.0573 0.31124-0.12695 0.13514-0.0696 0.23343-0.12696 0.10238-0.0573 0.19657-0.0573 0.0614 0 0.10648 0.0246 0.045 0.0246 0.0778 0.0696l0.29485 0.36857q-0.1679 0.19658-0.37676 0.33172-0.20886 0.13105-0.43819 0.21295-0.22524 0.0778-0.46277 0.11057-0.23343 0.0328-0.45457 0.0328-0.43819 0-0.81496-0.14334-0.37676-0.14743-0.65524-0.43-0.27848-0.28667-0.43819-0.70438-0.15972-0.42182-0.15972-0.97468 0-0.43 0.13924-0.80676 0.13924-0.38086 0.39724-0.65934 0.2621-0.28257 0.63477-0.44638 0.37676-0.16381 0.84772-0.16381zm0.0205 0.72486q-0.44229 0-0.6921 0.24981t-0.31943 0.70848h1.9002q0-0.19657-0.0532-0.36857-0.0532-0.1761-0.16382-0.30715-0.11057-0.13105-0.27847-0.20476-0.16791-0.0778-0.39315-0.0778z"/>
     <path d="m127.18 178.27q-0.0451 0.0573-0.0901 0.0901-0.041 0.0328-0.12286 0.0328-0.0778 0-0.15153-0.0451-0.0737-0.0491-0.17609-0.10647-0.10238-0.0614-0.24572-0.10648-0.13924-0.0491-0.34809-0.0491-0.2662 0-0.46686 0.0983-0.20067 0.0942-0.33582 0.27438-0.13104 0.1802-0.19657 0.4382-0.0655 0.2539-0.0655 0.57743 0 0.33581 0.0696 0.59791 0.0737 0.26209 0.20886 0.44229 0.13514 0.17609 0.32762 0.27028 0.19247 0.0901 0.43409 0.0901t0.38905-0.0573q0.15153-0.0614 0.25391-0.13104 0.10238-0.0737 0.1761-0.13105 0.0778-0.0614 0.172-0.0614 0.12285 0 0.18428 0.0942l0.29077 0.36857q-0.16791 0.19658-0.36448 0.33172-0.19657 0.13105-0.40953 0.21295-0.20886 0.0778-0.43409 0.11057-0.22524 0.0328-0.44639 0.0328-0.38905 0-0.73305-0.14334-0.344-0.14743-0.602-0.4259-0.25391-0.27848-0.40543-0.67982-0.14743-0.40543-0.14743-0.92143 0-0.46277 0.13105-0.85591 0.13514-0.39724 0.39314-0.68391 0.258-0.29076 0.63886-0.45457t0.87639-0.16381q0.47095 0 0.82314 0.15152 0.35629 0.15153 0.63886 0.4341z"/>
     <path d="m128.13 181.58v-6.0856h1.0115v2.3384q0.24572-0.23342 0.54058-0.37676 0.29485-0.14333 0.69209-0.14333 0.34401 0 0.6102 0.11876 0.26619 0.11467 0.44229 0.32762 0.18019 0.20886 0.27028 0.50372 0.0942 0.29076 0.0942 0.64295v2.6742h-1.0115v-2.6742q0-0.38495-0.1802-0.59381-0.17609-0.21295-0.53238-0.21295-0.2621 0-0.49143 0.11876-0.22934 0.11876-0.4341 0.32352v3.0387z"/>
     <path d="m137.15 180.77q0.37267 0 0.64705-0.0655 0.27848-0.0696 0.52829-0.18838v-1.077h-0.74124q-0.10648 0-0.16791-0.0573-0.0614-0.0614-0.0614-0.14743v-0.62248h1.9698v2.3957q-0.22524 0.16381-0.47095 0.28667-0.24162 0.11876-0.5201 0.19657-0.27438 0.0778-0.58972 0.11467-0.31533 0.041-0.67981 0.041-0.64705 0-1.1917-0.22524t-0.94191-0.62657q-0.39724-0.40134-0.62248-0.95829-0.22115-0.55696-0.22115-1.2163 0-0.66752 0.21705-1.2245 0.21705-0.55695 0.61429-0.95829 0.40134-0.40133 0.97058-0.62248 0.56924-0.22114 1.2777-0.22114 0.72486 0 1.2532 0.21705 0.53238 0.21295 0.90096 0.55695l-0.31943 0.49962q-0.0942 0.15153-0.24981 0.15153-0.0983 0-0.20067-0.0655-0.13105-0.0778-0.27029-0.15562-0.13514-0.0778-0.30305-0.13514-0.16381-0.0573-0.37267-0.0942-0.20476-0.0369-0.47505-0.0369-0.43819 0-0.79448 0.14743-0.35219 0.14743-0.602 0.42181-0.24981 0.27439-0.38496 0.65934-0.13514 0.38495-0.13514 0.86 0 0.51191 0.14334 0.91325 0.14333 0.39724 0.40133 0.67162t0.61429 0.42181q0.35629 0.14334 0.7781 0.14334z"/>
     <path d="m140.29 181.58v-4.2017h0.59382q0.15562 0 0.21705 0.0573 0.0614 0.0573 0.0819 0.19658l0.0614 0.50781q0.22524-0.38905 0.52829-0.61429t0.67981-0.22524q0.31124 0 0.516 0.14334l-0.13104 0.75762q-0.0123 0.0737-0.0532 0.10648-0.0409 0.0287-0.11057 0.0287-0.0614 0-0.16791-0.0287-0.10648-0.0287-0.28257-0.0287-0.31534 0-0.54058 0.17609-0.22524 0.17201-0.38086 0.50782v2.6169z"/>
     <path d="m145.43 177.31q0.47096 0 0.85182 0.15152 0.38495 0.15153 0.65524 0.43 0.27028 0.27848 0.41771 0.67982 0.14743 0.40133 0.14743 0.89686 0 0.49962-0.14743 0.90096-0.14743 0.40133-0.41771 0.6839-0.27029 0.28258-0.65524 0.4341-0.38086 0.15153-0.85182 0.15153-0.47095 0-0.85591-0.15153-0.38495-0.15152-0.65934-0.4341-0.27028-0.28257-0.42181-0.6839-0.14743-0.40134-0.14743-0.90096 0-0.49553 0.14743-0.89686 0.15153-0.40134 0.42181-0.67982 0.27439-0.27847 0.65934-0.43 0.38496-0.15152 0.85591-0.15152zm0 3.5506q0.52419 0 0.77401-0.35219 0.2539-0.3522 0.2539-1.032t-0.2539-1.0361q-0.24982-0.35629-0.77401-0.35629-0.53238 0-0.78629 0.36038-0.25391 0.35629-0.25391 1.032t0.25391 1.032q0.25391 0.35219 0.78629 0.35219z"/>
     <path d="m149.22 177.38v2.6701q0 0.38496 0.1761 0.59791 0.18019 0.20886 0.53648 0.20886 0.26209 0 0.49143-0.11467 0.22933-0.11876 0.43409-0.32353v-3.0387h1.0115v4.2017h-0.61838q-0.19657 0-0.258-0.18429l-0.0696-0.33581q-0.13105 0.13105-0.27029 0.24162-0.13924 0.10648-0.29895 0.18429-0.15562 0.0737-0.33991 0.11466-0.18019 0.0451-0.38905 0.0451-0.344 0-0.61019-0.11467-0.2621-0.11876-0.44229-0.33171t-0.27438-0.50372q-0.0901-0.29486-0.0901-0.64705v-2.6701z"/>
     <path d="m152.95 182.95v-5.5736h0.61838q0.0983 0 0.16791 0.045 0.0696 0.0451 0.0901 0.13924l0.0819 0.38905q0.2539-0.29077 0.58152-0.47096 0.33172-0.18019 0.77401-0.18019 0.344 0 0.62657 0.14334 0.28667 0.14333 0.49143 0.41771 0.20886 0.27029 0.31944 0.67162 0.11466 0.39724 0.11466 0.91325 0 0.47095-0.12695 0.87229-0.12695 0.40133-0.36448 0.69619-0.23343 0.29486-0.56924 0.46277-0.33172 0.16381-0.74534 0.16381-0.35628 0-0.6061-0.10648-0.24571-0.11057-0.44228-0.30305v1.72zm1.9657-4.8529q-0.31533 0-0.54057 0.13514-0.22115 0.13105-0.41362 0.37267v1.8838q0.172 0.21295 0.37266 0.29895 0.20477 0.0819 0.4382 0.0819 0.22933 0 0.41362-0.086 0.18838-0.086 0.31533-0.2621 0.13105-0.1761 0.20067-0.44229 0.0696-0.27028 0.0696-0.63476 0-0.36858-0.0614-0.62248-0.0573-0.258-0.1679-0.41772-0.11058-0.15971-0.27029-0.23343-0.15562-0.0737-0.35629-0.0737z"/>
    </g>
   </g>
  </g>
 </g>
</svg>
