<svg width="75.518mm" height="26.447mm" version="1.1" viewBox="0 0 75.518 26.447" xmlns="http://www.w3.org/2000/svg">
 <g transform="translate(-23.249 -33.773)">
  <g transform="translate(-75.671,-111.92)">
   <g transform="translate(11.412,9.992)">
    <g fill="#c00" aria-label="IPTG">
     <path d="m93.547 161.87h-6.0388v-25.878h6.0388z"/>
     <path d="m104.35 153.22v8.6497h-6.0033v-25.878h9.1293q2.7352 0 4.689 0.65717 1.9715 0.6394 3.2326 1.7761 1.2788 1.1367 1.8827 2.682t0.60388 3.3391q0 1.936-0.62164 3.5522-0.62165 1.6163-1.9005 2.7708t-3.2503 1.8116q-1.9537 0.6394-4.6357 0.6394zm0-4.5291h3.126q2.3445 0 3.3746-1.119 1.0302-1.119 1.0302-3.126 0-0.88807-0.26642-1.6163t-0.81702-1.2433q-0.53284-0.53284-1.3676-0.81702-0.81702-0.28418-1.9537-0.28418h-3.126z"/>
     <path d="m139.8 135.99v4.76h-7.2821v21.118h-6.0033v-21.118h-7.2821v-4.76z"/>
     <path d="m153.4 157.53q1.2433 0 2.2024-0.21314 0.95911-0.21313 1.8116-0.56836v-3.9252h-2.5576q-0.56836 0-0.88806-0.30194-0.31971-0.30195-0.31971-0.76374v-3.3036h9.2003v10.923q-0.99463 0.72821-2.0781 1.261-1.0657 0.51507-2.2912 0.85254-1.2078 0.33746-2.5931 0.49731-1.3676 0.15985-2.9484 0.15985-2.8418 0-5.2573-0.99463-2.4155-1.0124-4.1916-2.7708-1.7584-1.7761-2.7708-4.1917-0.99463-2.4333-0.99463-5.2751 0-2.8951 0.95911-5.3106 0.95911-2.4333 2.7352-4.1917 1.7939-1.7584 4.316-2.7352 2.5399-0.97687 5.6658-0.97687 1.6163 0 3.0372 0.26642t2.6109 0.72821q1.2078 0.46179 2.2024 1.1012 0.99463 0.6394 1.7761 1.3854l-1.7406 2.6464q-0.24866 0.37299-0.60388 0.58612-0.33747 0.21314-0.74597 0.21314-0.53284 0-1.1012-0.35523-0.71045-0.42627-1.3499-0.72821-0.62164-0.3197-1.2788-0.51507-0.65716-0.19538-1.3854-0.28418-0.72822-0.0888-1.634-0.0888-1.6873 0-3.0372 0.60388-1.3499 0.58612-2.309 1.6696-0.94134 1.0834-1.4564 2.6109-0.51507 1.5097-0.51507 3.3746 0 2.0603 0.56836 3.6588t1.563 2.6997q1.0124 1.1012 2.38 1.6873 1.3854 0.56836 3.0194 0.56836z"/>
    </g>
   </g>
  </g>
 </g>
</svg>
